<svg xmlns="http://www.w3.org/2000/svg" viewBox="0 0 1600 1000" role="img" aria-label="Aerial night city placeholder for MedKW drone reel"><defs><linearGradient id="sky" x1="0" x2="1" y1="0" y2="1"><stop stop-color="#091019"/><stop offset=".55" stop-color="#17202b"/><stop offset="1" stop-color="#050607"/></linearGradient><linearGradient id="gold" x1="0" x2="1"><stop stop-color="#e8c36f"/><stop offset="1" stop-color="#8d6e30"/></linearGradient></defs><rect width="1600" height="1000" fill="url(#sky)"/><path d="M0 640 C210 560 340 620 500 552 C710 463 840 520 1030 450 C1240 372 1390 424 1600 328 L1600 1000 L0 1000 Z" fill="#101721"/><path d="M80 720h70v190H80zM190 650h110v260H190zM340 590h80v320h-80zM470 690h150v220H470zM690 520h120v390H690zM865 610h90v300h-90zM1020 480h160v430h-160zM1240 585h110v325h-110zM1410 430h95v480h-95z" fill="#0a0d12"/><rect x="106" y="760" width="14" height="38" fill="url(#gold)"/><rect x="226" y="700" width="16" height="44" fill="url(#gold)"/><rect x="370" y="640" width="14" height="38" fill="url(#gold)"/><rect x="520" y="748" width="18" height="48" fill="url(#gold)"/><rect x="728" y="570" width="16" height="48" fill="url(#gold)"/><rect x="890" y="670" width="14" height="38" fill="url(#gold)"/><rect x="1080" y="545" width="18" height="56" fill="url(#gold)"/><rect x="1290" y="650" width="14" height="42" fill="url(#gold)"/><rect x="1450" y="486" width="16" height="52" fill="url(#gold)"/><path d="M180 210h260l88 80h220l72-54h210l70 54h305" fill="none" stroke="#e9edf2" stroke-width="3" opacity=".34"/><circle cx="802" cy="464" r="7" fill="#f0c96c"/><circle cx="1030" cy="430" r="5" fill="#f0c96c"/><circle cx="1310" cy="356" r="5" fill="#f0c96c"/></svg>
